<svg xmlns="http://www.w3.org/2000/svg" viewBox="0 0 64 88" width="64" height="88">
  <!-- Bushy chili plant with a tiny pepper -->
  <path d="M 32 84 L 32 48" stroke="#3a6a1e" stroke-width="2" stroke-linecap="round"/>
  <g fill="#5fb237" stroke="#1f420e" stroke-width="1.5" stroke-linejoin="round">
    <ellipse cx="20" cy="64" rx="9" ry="5" transform="rotate(-18 20 64)"/>
    <ellipse cx="44" cy="64" rx="9" ry="5" transform="rotate(18 44 64)"/>
    <ellipse cx="17" cy="50" rx="9" ry="5" transform="rotate(-28 17 50)"/>
    <ellipse cx="47" cy="50" rx="9" ry="5" transform="rotate(28 47 50)"/>
  </g>
  <g fill="#6dc342" stroke="#1f420e" stroke-width="1.5" stroke-linejoin="round">
    <ellipse cx="25" cy="36" rx="8" ry="5" transform="rotate(-32 25 36)"/>
    <ellipse cx="39" cy="36" rx="8" ry="5" transform="rotate(32 39 36)"/>
    <ellipse cx="32" cy="26" rx="6" ry="4"/>
  </g>
  <!-- Tiny chili pepper -->
  <path d="M 22 52 Q 20 66 17 72 Q 14 68 17 52 Z" fill="#3aa825" stroke="#1f420e" stroke-width="1.2" stroke-linejoin="round"/>
  <path d="M 19 50 Q 22 48 25 51 L 22 53 Z" fill="#3a6a1e"/>
</svg>
