<svg xmlns="http://www.w3.org/2000/svg" viewBox="0 0 100 100" width="100%" height="100%">
  
      <!-- Wooden structure -->
      <path d="M 10 90 L 10 50 L 90 50 L 90 90 Z" fill="#b05c36" stroke="#4a2411" stroke-width="3" stroke-linejoin="round"/>
      <path d="M 10 50 L 20 40 L 100 40 L 90 50 Z" fill="#d27d46" stroke="#4a2411" stroke-width="3" stroke-linejoin="round"/>
      <path d="M 90 90 L 90 50 L 100 40 L 100 80 Z" fill="#8f4322" stroke="#4a2411" stroke-width="3" stroke-linejoin="round"/>
      <!-- Thatched roof (yellow/gold) -->
      <path d="M 0 60 C 10 30, 40 10, 50 10 C 60 10, 90 30, 100 60 C 90 55, 80 60, 70 55 C 60 60, 50 55, 40 60 C 30 55, 20 60, 10 55 C 5 58, 0 60, 0 60 Z" fill="#f4d03f" stroke="#8a5a19" stroke-width="3" stroke-linejoin="round"/>
      <!-- Details -->
      <rect x="40" y="60" width="20" height="30" fill="#4a2411" />
      <rect x="20" y="65" width="10" height="15" fill="#e9c46a" stroke="#4a2411" stroke-width="2"/>
      <rect x="70" y="65" width="10" height="15" fill="#e9c46a" stroke="#4a2411" stroke-width="2"/>
    
</svg>